<svg width="17" height="19" viewBox="0 0 17 19" fill="none" xmlns="http://www.w3.org/2000/svg">
<path d="M16.0843 11.5329L14.9992 9.72755C14.7591 9.33384 14.5478 8.57522 14.5478 8.11429V6.31857C14.5478 2.83279 11.715 0 8.23886 0C4.75312 0.00960269 1.92032 2.83279 1.92032 6.31857V8.10469C1.92032 8.56562 1.70906 9.32423 1.4786 9.71794L0.393493 11.5233C-0.0194233 12.2242 -0.11545 13.0213 0.143822 13.7127C0.403095 14.4137 0.988859 14.9706 1.75707 15.2203C2.79417 15.566 3.84086 15.8157 4.90676 15.9981C5.01239 16.0173 5.11802 16.0269 5.22365 16.0461C5.35808 16.0653 5.50213 16.0845 5.64617 16.1037C5.89584 16.1421 6.14551 16.171 6.40475 16.1902C7.00972 16.2478 7.62429 16.2766 8.23886 16.2766C8.84383 16.2766 9.4488 16.2478 10.0442 16.1902C10.265 16.171 10.4859 16.1517 10.6972 16.1229C10.87 16.1037 11.0429 16.0845 11.2157 16.0557C11.3213 16.0461 11.427 16.0269 11.5326 16.0077C12.6081 15.8349 13.674 15.566 14.7111 15.2203C15.4505 14.9706 16.017 14.4137 16.2859 13.7031C16.5548 12.9829 16.478 12.1954 16.0843 11.5329ZM8.93986 7.63416C8.93986 8.03747 8.61337 8.36397 8.21006 8.36397C7.80674 8.36397 7.48025 8.03747 7.48025 7.63416V4.65731C7.48025 4.25399 7.80674 3.9275 8.21006 3.9275C8.61337 3.9275 8.93986 4.25399 8.93986 4.65731V7.63416Z" fill="white"/>
<path d="M10.9377 17.0891C10.5344 18.203 9.46849 19 8.22014 19C7.46153 19 6.71252 18.6927 6.18436 18.1454C5.87708 17.8573 5.64661 17.4732 5.51218 17.0795C5.63701 17.0987 5.76185 17.1083 5.89628 17.1275C6.11715 17.1563 6.34762 17.1851 6.57808 17.2043C7.12544 17.2523 7.68239 17.2811 8.23935 17.2811C8.7867 17.2811 9.33406 17.2523 9.87181 17.2043C10.0735 17.1851 10.2751 17.1755 10.4672 17.1467C10.6208 17.1275 10.7745 17.1083 10.9377 17.0891Z" fill="white"/>
</svg>
